<svg xmlns="http://www.w3.org/2000/svg" viewBox="0 0 134.77 47.36">
  <defs>
    <style>
      .cls-2 {
        fill: #fff;
      }
    </style>
  </defs>
  <path class="cls-2" d="M0,12.91H3.24v.25a3.18,3.18,0,0,0,3.19,3.46c1.68,0,3.08-1.18,3.08-3.54V1.18h3.38V13.35a6,6,0,0,1-6.34,6.32A6.21,6.21,0,0,1,0,13.27v-.36Z" />
  <path class="cls-2" d="M22.66,6.24A6.64,6.64,0,0,1,29.55,13a6.63,6.63,0,0,1-6.89,6.7A6.65,6.65,0,0,1,15.71,13,6.66,6.66,0,0,1,22.66,6.24ZM26.39,13a3.76,3.76,0,1,0-7.52,0,3.76,3.76,0,1,0,7.52,0ZM23.24,0h3.57L23.87,4.48H21.15Z" />
  <path class="cls-2" d="M40.87,6.51H44.3l-5,12.88H35.53l-5-12.88h3.43l3.46,9.72Z" />
  <path class="cls-2" d="M58.33,15.27a6.47,6.47,0,0,1-6.48,4.39A6.39,6.39,0,0,1,45.26,13a6.43,6.43,0,0,1,6.67-6.73,6.2,6.2,0,0,1,6.56,6.48,6.76,6.76,0,0,1-.08,1h-10a3.45,3.45,0,0,0,3.63,3.13,3.21,3.21,0,0,0,3-1.62h3.27Zm-3-3.6A3.3,3.3,0,0,0,51.91,8.9a3.26,3.26,0,0,0-3.38,2.77Z" />
  <path class="cls-2" d="M61.32,6.51h2.8l.25,1.57a5,5,0,0,1,4.06-1.84,5,5,0,0,1,5.36,5.33V19.4H70.6V12.26a2.71,2.71,0,0,0-2.86-3,3,3,0,0,0-3.16,3l0,7.17H61.31V6.51Z" />
  <path class="cls-2" d="M89.53,15.27a6.47,6.47,0,0,1-6.48,4.39A6.39,6.39,0,0,1,76.46,13a6.43,6.43,0,0,1,6.67-6.73,6.2,6.2,0,0,1,6.56,6.48,6.76,6.76,0,0,1-.08,1h-10a3.45,3.45,0,0,0,3.63,3.13,3.21,3.21,0,0,0,3-1.62h3.27Zm-3-3.6A3.3,3.3,0,0,0,83.1,8.9a3.26,3.26,0,0,0-3.38,2.77Z" />
  <path class="cls-2" d="M94.55,15a2.46,2.46,0,0,0,2.66,2.09c1.13,0,2.17-.47,2.17-1.46s-1.24-1.32-3-1.65c-2-.36-4.53-.91-4.53-3.65s2.64-4.06,5.22-4.06,5.14,1.43,5.24,4.34h-3A2.28,2.28,0,0,0,96.88,8.8c-1,0-2.06.47-2.06,1.32s.77,1,2.53,1.4c2.33.44,5.19.85,5.19,3.87S99.71,19.7,97,19.7s-5.38-1.57-5.44-4.7Z" />
  <path class="cls-2" d="M119.46,11.7v-.58c0-1.48-1.26-2.2-2.64-2.2a2.36,2.36,0,0,0-2.55,1.62h-3.1c.36-3,3-4.34,5.8-4.34,3.24,0,5.69,1.57,5.69,5v4.64c0,.88.41,1.1,1.24,1.1V19.5a9,9,0,0,1-1.18.08c-1.46,0-2.72-.47-3-2.06a4.87,4.87,0,0,1-4.37,2.14c-2.33,0-4.78-1.15-4.78-3.85,0-2.91,2.23-4.12,4.83-4.12h4Zm-3.77,2.12c-1.21,0-1.84.6-1.84,1.68s1.07,1.65,2.2,1.65a3.14,3.14,0,0,0,3.41-3.1v-.22h-3.77Z" />
  <path class="cls-2" d="M1.68,23.46h8.4a6.09,6.09,0,1,1,0,12.17h-5v6H1.67V23.46Zm7.94,9.2a3.11,3.11,0,1,0,0-6.2H5.09v6.21H9.62Z" />
  <path class="cls-2" d="M18.87,41.67V28.79H21.7L22,31.1a4.15,4.15,0,0,1,4.09-2.58,3.05,3.05,0,0,1,.85.11v2.91a3.1,3.1,0,0,0-.66-.08,4,4,0,0,0-4.18,4.26v6h-3.2Z" />
  <path class="cls-2" d="M34.93,28.52a6.72,6.72,0,1,1,0,13.43,6.72,6.72,0,1,1,0-13.43Zm3.77,6.73A3.76,3.76,0,1,0,34.94,39,3.68,3.68,0,0,0,38.7,35.25Z" />
  <path class="cls-2" d="M54.87,28.79h2.8V40.52c0,4.23-2.61,6.84-6.87,6.84-3.46,0-6-1.87-6.62-4.86h3.21a3.73,3.73,0,0,0,7.06-1.7V40a5.28,5.28,0,0,1-4.37,1.84,6.37,6.37,0,0,1-6.37-6.7,6.28,6.28,0,0,1,6.37-6.59,5.47,5.47,0,0,1,4.45,1.92Zm-.44,6.35a3.75,3.75,0,0,0-3.82-3.82,3.65,3.65,0,0,0-3.74,3.82,3.72,3.72,0,0,0,3.74,3.93A3.81,3.81,0,0,0,54.43,35.14Z" />
  <path class="cls-2" d="M61.38,41.67V28.79h2.83l.27,2.31a4.14,4.14,0,0,1,4.09-2.58,3.05,3.05,0,0,1,.85.11v2.91a3.1,3.1,0,0,0-.66-.08,4,4,0,0,0-4.17,4.26v6H61.38Z" />
  <path class="cls-2" d="M79.61,34V33.4c0-1.48-1.26-2.2-2.64-2.2a2.36,2.36,0,0,0-2.55,1.62h-3.1c.36-3,3-4.34,5.8-4.34,3.24,0,5.69,1.57,5.69,5v4.64c0,.88.41,1.1,1.24,1.1v2.53a9,9,0,0,1-1.18.08c-1.46,0-2.72-.47-3-2.06a4.87,4.87,0,0,1-4.37,2.14c-2.33,0-4.78-1.15-4.78-3.84C70.73,35.19,73,34,75.56,34ZM75.85,36.1c-1.21,0-1.84.6-1.84,1.67s1.07,1.65,2.2,1.65a3.14,3.14,0,0,0,3.41-3.1V36.1Z" />
  <path class="cls-2" d="M86.78,41.67V28.79h2.83l.33,1.57a4.58,4.58,0,0,1,3.82-1.84,4.77,4.77,0,0,1,4.45,2.31,5.21,5.21,0,0,1,4.48-2.31c3.35,0,5.19,2.17,5.19,5.33v7.83h-3.21V34.54c0-1.95-1-3.05-2.66-3.05A2.87,2.87,0,0,0,99,34.4v7.28H95.75V34.54c0-1.95-1-3.05-2.69-3.05a2.89,2.89,0,0,0-3,3v7.17H86.78Z" />
  <path class="cls-2" d="M119.57,34V33.4c0-1.48-1.26-2.2-2.64-2.2a2.36,2.36,0,0,0-2.55,1.62h-3.1c.36-3,3-4.34,5.8-4.34,3.24,0,5.69,1.57,5.69,5v4.64c0,.88.41,1.1,1.24,1.1v2.53a9,9,0,0,1-1.18.08c-1.46,0-2.72-.47-3-2.06a4.87,4.87,0,0,1-4.37,2.14c-2.33,0-4.78-1.15-4.78-3.84,0-2.91,2.23-4.12,4.83-4.12ZM115.8,36.1c-1.21,0-1.84.6-1.84,1.67s1.07,1.65,2.2,1.65a3.14,3.14,0,0,0,3.41-3.1V36.1Z" />
  <path class="cls-2" d="M126.73,41.67V28.79h2.83l.27,2.31a4.14,4.14,0,0,1,4.09-2.58,3.05,3.05,0,0,1,.85.11v2.91a3.1,3.1,0,0,0-.66-.08,4,4,0,0,0-4.17,4.26v6h-3.21Z" />
</svg>