<svg xmlns="http://www.w3.org/2000/svg" viewBox="0 0 102.44 48.11">
  <defs>
    <style>
      .cls-1 {
        fill: #f09103;
      }
    </style>
  </defs>
  <path class="cls-1" d="M23.93,39.89l-.1-.12h0A24.85,24.85,0,0,1,18.37,24,24.85,24.85,0,0,1,23.83,8.32v0a3.84,3.84,0,0,0,1-2.4c0-3.57-4-3.37-4-3.37C8.89,2.53,0,12.42,0,24A21.16,21.16,0,0,0,21.45,45.57a3.3,3.3,0,0,0,3.4-3.38A3.53,3.53,0,0,0,24,40Z" />
  <rect class="cls-1" x="37.32" width="0.69" height="48.11" />
  <path class="cls-1" d="M101.84,32.44a2.08,2.08,0,0,0-1.47-.61h-3V7.28A3.48,3.48,0,0,0,93.91,3.8H59a3.48,3.48,0,0,0-3.48,3.48V31.84h-3a2.08,2.08,0,0,0-2.08,2.08v7.47h0a3.06,3.06,0,0,0,3.06,2.93H99.38a3.07,3.07,0,0,0,3.06-2.93h0V33.92A2,2,0,0,0,101.84,32.44ZM62.93,22.72a.85.85,0,0,1,.85-.85H89.15a.85.85,0,1,1,0,1.7H63.78A.86.86,0,0,1,62.93,22.72ZM90,17.62a.85.85,0,0,1-.85.85H63.78a.85.85,0,0,1,0-1.7H89.15A.85.85,0,0,1,90,17.62ZM63.78,11.68h7.8a.85.85,0,0,1,0,1.7h-7.8a.85.85,0,0,1,0-1.7ZM98.29,39.62a.53.53,0,0,1-.53.53H55.17a.53.53,0,0,1-.53-.53V36H98.29Z" />
</svg>
